<svg width="50" height="49" viewBox="0 0 50 49" fill="none" xmlns="http://www.w3.org/2000/svg">
<g clip-path="url(#clip0_10_627)">
<path d="M49.2812 11.1412V39.5387C49.2812 41.3844 47.7868 42.8789 45.9411 42.8789H38.144V23.9485L24.7812 33.9731L11.4185 23.9485V42.8809H3.62142C3.18261 42.8809 2.7481 42.7945 2.34272 42.6265C1.93734 42.4585 1.56903 42.2123 1.25884 41.9019C0.948651 41.5915 0.702658 41.223 0.534919 40.8176C0.36718 40.4121 0.280982 39.9775 0.281251 39.5387V11.1412C0.281251 7.01088 4.99546 4.65275 8.29888 7.13134L11.4185 9.47313L24.7812 19.4936L38.144 9.46905L41.2636 7.13134C44.565 4.6548 49.2812 7.01088 49.2812 11.1412Z" fill="white"/>
</g>
<defs>
<clipPath id="clip0_10_627">
<rect width="49" height="49" fill="white" transform="translate(0.28125)"/>
</clipPath>
</defs>
</svg>
